<?xml version="1.0" encoding="utf-8"?>
<!-- Generator: Adobe Illustrator 19.1.0, SVG Export Plug-In . SVG Version: 6.00 Build 0)  -->
<svg version="1.1" id="Ebene_1" xmlns="http://www.w3.org/2000/svg" xmlns:xlink="http://www.w3.org/1999/xlink" x="0px" y="0px"
	 width="250px" height="35px" viewBox="-295 280.3 250 35" style="enable-background:new -295 280.3 250 35;" xml:space="preserve">
<style type="text/css">
	.st0{fill:#1D1D1B;}
</style>
<g id="Tiefe">
	<path class="st0" d="M-52.9,313.2c-4.2,0-6.8-1-9.9-3.7c-1.7-1.5-3.2-3.3-4.2-5c-1.1-2.1-1.3-2.2-4.1-2.2h-3
		c-0.1,0-0.2,0.1-0.2,0.2v6.5c0,1.5,0.6,1.9,2.9,1.9h2.1c0,0.5,0,1.1-0.2,1.3c-0.2,0.2-0.5,0.3-0.9,0.3h-13.7c0-0.3-0.1-0.8,0-1.3
		c3.7-0.3,4.8-0.8,4.8-3.6v-20.4c0-1.9-0.8-2.2-2.6-2.2h-2c-0.1-0.5-0.1-0.9,0.1-1.1c0.2-0.3,0.8-0.5,1.6-0.6
		c2.1-0.2,4.7-0.2,10.9-0.2c8.1,0,13,3.7,13,9.9c0,3.6-2.1,6.5-5.8,8.1c-0.1,0-0.1,0.1-0.1,0.1c0,0.1,0,0.1,0.1,0.2
		c0,0,3.3,3.1,5,4.4c5.8,4.6,7.8,5.1,11.6,5.1c0.1,0.5,0,0.8-0.2,1.1C-48.5,312.8-50.2,313.2-52.9,313.2z M-74,285.3
		c-0.1,0-0.2,0.1-0.2,0.2V300c0,0.1,0.1,0.2,0.2,0.2h2.1c4.1,0,8.1-0.5,8.1-6.9c0-5.4-2.9-8-8.7-8C-72.5,285.3-74,285.3-74,285.3z
		 M-188.2,288.6c0-0.1-0.1-0.1-0.2-0.1l0,0c-0.1,0-0.2,0.1-0.2,0.2l-1.4,19.8c-0.1,0.7-0.1,1.3,0.3,1.7c0.5,0.5,1.6,0.7,4.5,0.7h2.2
		c0.1,0.7,0.1,1.1-0.1,1.3c-0.2,0.2-0.4,0.3-0.9,0.3h-14.3c-0.1-0.4-0.1-0.9,0-1.3c4.7-0.3,5.3-1.2,5.4-3.2l1.8-20.8
		c0-0.5,0.1-1-0.3-1.4c-0.5-0.5-1.6-0.8-4.3-0.9c-0.1-0.5,0-0.8,0.2-1.1c0.3-0.3,0.8-0.5,1.5-0.5h8.8l11,21.1c0,0.1,0.1,0.1,0.2,0.1
		l0,0c0.1,0,0.1,0,0.2-0.1l10.1-21.1h10.2c0.1,0.4,0.1,0.9,0,1.3c-2.3,0.2-3.5,0.5-4,1.1c-0.4,0.4-0.3,0.9-0.3,1.4l2.1,21.6
		c0.1,1.6,1.1,1.7,4.3,2.1c0.1,0.7,0,1.1-0.2,1.4c-0.2,0.2-0.4,0.3-0.9,0.3h-15.4c-0.1-0.4-0.1-0.9,0-1.3l2.2-0.1
		c2.1-0.1,3.3-0.3,3.9-1c0.5-0.5,0.4-1.3,0.4-2.1l-2-19.3c0-0.1-0.1-0.2-0.2-0.2l0,0c-0.1,0-0.1,0-0.2,0.1l-10.6,22.3
		c-0.7,1.5-1.1,1.7-1.9,1.7L-188.2,288.6z M-116.7,312.5c-0.1-0.4-0.1-0.9,0-1.3c4.6-0.3,5.6-0.6,5.6-3.7v-20.4
		c0-1.8-0.6-2.1-2.6-2.1h-1.9c-0.1-0.6,0-0.9,0.2-1.1c0.3-0.3,0.8-0.4,1.6-0.4H-93c0.1,1.8,0.4,3.8,0.7,5.8c0.1,0.6,0,1.1-0.2,1.4
		c-0.2,0.2-0.5,0.4-1,0.4c-0.1,0-0.1,0-0.2,0l-0.5-1.9c-0.8-2.7-1.7-3.5-4.3-3.5h-7.1c-0.1,0-0.2,0.1-0.2,0.2v11.4
		c0,0.1,0.1,0.2,0.2,0.2h4.6c1.5,0,1.8-0.6,1.9-1.8l0.3-2.1h0.4c0.4,0,0.7,0.1,0.8,0.2c0.2,0.2,0.3,0.6,0.2,1.2
		c-0.1,2.8-0.1,5.7,0,8.6c-0.2,0.1-0.4,0.1-0.6,0.1s-0.4,0-0.6-0.1c-0.6-3.3-1.1-3.9-2.5-3.9h-4.6c-0.1,0-0.2,0.1-0.2,0.2v7.8
		c0,1.7,0.5,2.5,3.6,2.5h3.8c3.3,0,3.8-0.2,5.7-4.3l1.2-2.6l0,0c0.6,0,0.9,0.1,1.1,0.4s0.2,0.7,0,1.2c-1,3-1.8,5.5-2.3,7.8
		L-116.7,312.5L-116.7,312.5z M-144.9,312.5c-0.1-0.4-0.1-0.9,0-1.3c4.1-0.3,5.3-0.8,5.3-3.9v-20.2c0-1.7-0.7-2.1-2.6-2.1h-2
		c-0.1-0.5-0.1-0.9,0.1-1.1c0.2-0.3,0.8-0.5,1.6-0.5h13.6c0.1,0.4,0.1,1,0,1.3c-4.5,0.3-5.6,0.7-5.6,3.7V308c0,1.8,1.2,2.1,2.2,2.1
		h2.8c3.3,0,3.8-0.2,5.7-4.3l1.2-2.6l0,0c0.6,0,1,0.1,1.1,0.4c0.2,0.3,0.2,0.7,0,1.2c-1.1,3-1.8,5.5-2.3,7.8h-21.1V312.5z
		 M-218.2,312.5c-0.1-0.4-0.1-0.9,0-1.4c3.4-0.6,4.4-1,4.4-3V287c0-1.8-0.6-2.1-2.6-2.1h-2c-0.1-0.5-0.1-0.9,0.1-1.1
		c0.2-0.3,0.8-0.5,1.6-0.5h12.5c0.1,0.4,0.1,1,0,1.3c-3.8,0.3-4.5,1.2-4.5,3.1v21c0,1.7,0.7,2.1,2.5,2.1h2.2c0.1,0.7,0.1,1.1,0,1.3
		c-0.2,0.2-0.5,0.3-0.9,0.3L-218.2,312.5L-218.2,312.5z M-236.8,312.5c-0.1-0.4-0.1-0.9,0-1.3c3.3-0.1,4.5-0.3,4.9-0.9
		c0.2-0.3,0.1-0.7,0-1.1l-2.8-6.7c0-0.1-0.1-0.1-0.2-0.1h-11.4c-0.1,0-0.2,0.1-0.2,0.1l-1.8,4.8c-0.6,1.6-0.8,2.4-0.5,3
		c0.3,0.4,0.9,0.6,2.1,0.6h3.6c0.1,0.6,0.1,1-0.1,1.3c-0.2,0.2-0.4,0.3-0.8,0.3h-12.5c-0.1-0.4-0.1-0.9,0-1.3c3.4-0.4,3.8-0.8,5-3.6
		l8.7-20.7c1.5-3.4,2-4,3.9-4h1.6c0.1,0.9,0.5,1.7,1.1,3.2l10.2,23.3c0.5,1.2,1.1,1.7,3.4,1.7h0.9c0.1,0.6,0.1,1.1-0.1,1.3
		c-0.2,0.2-0.4,0.3-0.9,0.3L-236.8,312.5L-236.8,312.5z M-240.8,288.5c-0.1,0-0.2,0.1-0.2,0.1l-4.6,11.5c0,0.1,0,0.1,0,0.2
		s0.1,0.1,0.2,0.1h9.4c0.1,0,0.1,0,0.2-0.1c0-0.1,0-0.1,0-0.2l-4.8-11.5C-240.6,288.6-240.7,288.5-240.8,288.5L-240.8,288.5z
		 M-292.7,312.5c-0.1-0.4-0.1-0.9,0-1.3c4.6-0.3,5.6-0.6,5.6-3.7v-20.9c0-1.9-0.6-2.2-2.6-2.2h-2c-0.1-0.6-0.1-1,0.1-1.2
		c0.4-0.5,1.9-0.7,5.9-0.7h9c12,0,18,5,18,15c0,9.8-6.1,15-17.6,15L-292.7,312.5L-292.7,312.5z M-281.8,284.7
		c-0.1,0-0.2,0.1-0.2,0.2v22.2c0,2.9,1.2,3.3,5.3,3.3c11.1,0,12.6-6.1,12.6-12.1c0-8.8-4.7-13.6-13.1-13.6H-281.8L-281.8,284.7z"/>
	<g id="D_2_">
		<path class="st0" d="M-258.8,297.5c0-9.8-6-14.8-17.8-14.8h-9c-3.3,0-5.3,0.1-5.8,0.6c-0.1,0.2-0.2,0.4-0.1,0.9v0.2l-0.3,0.2
			c-0.3-1.9-0.1-2.3,6.2-2.3h9c12.7,0,18.2,5.7,18.2,15.2l-0.2,0.2L-258.8,297.5z"/>
		<path class="st0" d="M-258.8,297.5c0,9.7-6,14.8-17.4,14.8h-16.3h-0.2l-0.1,0.4h16.6c12.6,0,17.8-6.1,17.8-15.2
			C-258.4,297.5-258.8,297.5-258.8,297.5z"/>
		<path class="st0" d="M-292.5,312.3c0-0.3,0-0.6,0-1c4.3-0.2,5.6-0.6,5.6-3.9v-20.8c0-2-0.7-2.4-2.8-2.4h-1.8l-0.3,0.4h2.1
			c2,0,2.4,0.3,2.4,2v20.8c0,3-0.8,3.3-5.6,3.5c-0.1,0.6-0.1,1.3,0,1.7L-292.5,312.3z"/>
		<path class="st0" d="M-277.2,310.7c0.2,0,0.3,0,0.5,0c6.3,0,12.8-1.5,12.8-12.3c0-8.9-4.7-13.8-13.3-13.8l-0.3,0.2l0.3,0.2
			c8.5,0,12.9,4.9,12.9,13.4c0,9.5-4.8,11.9-12.4,11.9c-0.2,0-0.4,0-0.5,0l-0.2,0.2L-277.2,310.7z"/>
		<path class="st0" d="M-282.1,298.3v-13.4c0-0.2,0.2-0.4,0.4-0.4h4.5v0.4h-4.6v13.4l-0.2,0.1L-282.1,298.3z"/>
		<path class="st0" d="M-281.8,298.3v8.8c0,2.6,0.9,3.1,4.6,3.1v0.4c-3.8,0-4.9-0.6-4.9-3.5v-8.8H-281.8z"/>
	</g>
	<g id="A_2_">
		<path class="st0" d="M-256.3,312.3c0-0.3,0-0.6,0-1c3.3-0.4,3.8-0.9,5-3.7l8.7-20.7c1.4-3.4,1.9-3.9,3.7-3.9h1.4l0.2-0.1l0.1-0.3
			h-1.6c-2.1,0-2.7,0.7-4.1,4.1l-8.7,20.7c-1.2,2.8-1.6,3.1-5,3.5c-0.1,0.6-0.1,1.3,0,1.7L-256.3,312.3L-256.3,312.3z"/>
		<path class="st0" d="M-256.3,312.3h12.3c0.3,0,0.6-0.1,0.7-0.2c0.1-0.2,0.2-0.5,0.1-1v-0.2l0.4-0.2c0.3,1.3,0,2-1.1,2h-12.6
			L-256.3,312.3z"/>
		<path class="st0" d="M-248.1,306.3l-0.4,1c-0.7,1.7-0.9,2.5-0.5,3.1s1.2,0.7,2.2,0.7h3.5l0.3-0.4h-3.8c-2.4,0-2.4-0.7-1.4-3.3
			l0.4-1.2l-0.1-0.2L-248.1,306.3z"/>
		<path class="st0" d="M-248.1,306.3l1.4-3.8c0.1-0.2,0.2-0.3,0.4-0.3h5.6l0.1,0.2l-0.1,0.2h-5.6l-1.4,3.6L-248.1,306.3z"/>
		<path class="st0" d="M-233,306.3l-1.6-3.8c-0.1-0.1-0.2-0.2-0.4-0.2h-5.8v0.4h5.8l1.5,3.6l0.3,0.2L-233,306.3z"/>
		<path class="st0" d="M-233,306.3l1.2,2.9c0.2,0.4,0.3,0.8,0,1.2c-0.4,0.6-1.6,0.9-4.9,1c0,0.3,0,0.7,0,0.9v0.2l-0.4,0.2
			c-0.1-0.4-0.1-1.2,0-1.7c4.8-0.1,5.3-0.5,4.8-1.7l-1.3-3.1L-233,306.3z"/>
		<path class="st0" d="M-236.6,312.3h14c0.3,0,0.6-0.1,0.7-0.2c0.1-0.2,0.2-0.5,0.1-1v-0.2l0.3-0.2c0.3,1.3,0,2-1.1,2h-14.3
			L-236.6,312.3z"/>
		<path class="st0" d="M-221.8,311.1h-0.7c-2.3,0-3-0.4-3.6-1.8l-10.2-23.3c-0.6-1.4-1-2.2-1.1-3l0.3-0.4c0.1,1,0.4,1.7,1.1,3.3
			l10.2,23.3c0.5,1.1,1,1.5,3.2,1.5h1L-221.8,311.1z"/>
		<path class="st0" d="M-240.8,288.3c-0.2,0-0.3,0.1-0.4,0.2l-4.6,11.5c0,0.1,0,0.3,0,0.4c0.1,0.1,0.2,0.2,0.3,0.2h4.6l0.1-0.2
			l-0.1-0.2h-4.6l4.6-11.5l0.1-0.2V288.3z"/>
		<path class="st0" d="M-240.8,288.3L-240.8,288.3c0.2,0,0.3,0.1,0.4,0.2l4.8,11.5c0.1,0.1,0,0.3,0,0.4c-0.1,0.1-0.2,0.2-0.3,0.2
			h-4.9v-0.4h4.8l-4.8-11.5V288.3z"/>
	</g>
	<g id="I_2_">
		<path class="st0" d="M-204.4,283.6h-12.3c-0.7,0-1.2,0.1-1.4,0.4c-0.1,0.2-0.2,0.4-0.1,0.8l0.1,0.2l-0.4,0.2c-0.3-1.1,0-2,1.9-2
			h12.6l-0.2,0.4C-204.2,283.6-204.4,283.6-204.4,283.6z"/>
		<path class="st0" d="M-218.1,312.3c-0.1-0.3,0-0.6,0-1c3.2-0.5,4.4-1,4.4-3.2V287c0-1.9-0.7-2.3-2.8-2.3h-1.8l-0.3,0.4h2.1
			c2,0,2.4,0.3,2.4,1.9v21.1c0,1.8-0.8,2.3-4.4,2.8c-0.2,0.6-0.2,1.3,0,1.7l0.3-0.2L-218.1,312.3z"/>
		<path class="st0" d="M-204.1,311.1c0.1,0.5,0.1,0.8,0,1c-0.1,0.1-0.4,0.2-0.8,0.2H-218l-0.3,0.4h13.4c1.3,0,1.5-0.7,1.1-2
			l-0.4,0.2L-204.1,311.1z"/>
		<path class="st0" d="M-208.9,298.3v10.5c0,1.9,0.8,2.3,2.7,2.3h2.1l0.3-0.4h-2.4c-1.9,0-2.3-0.3-2.3-1.9v-10.5l-0.2-0.2
			L-208.9,298.3z"/>
		<path class="st0" d="M-204.4,284.6c-3.4,0.3-4.5,1.1-4.5,3.3v10.5h0.4v-10.5c0-1.9,0.6-2.7,4.4-3l-0.2-0.4L-204.4,284.6
			L-204.4,284.6z"/>
		<path class="st0" d="M-204.4,283.6c0,0.3,0,0.7,0,1l0.3,0.4c0.1-0.4,0.1-1.3,0-1.7L-204.4,283.6z"/>
	</g>
	<g id="M_2_">
		<path class="st0" d="M-185.2,283.6h-8.6c-0.7,0-1.2,0.1-1.4,0.4c-0.1,0.2-0.2,0.4-0.1,0.8l0.1,0.2l-0.4,0.2c-0.3-1,0-2,1.9-2h8.9
			v0.4H-185.2z"/>
		<path class="st0" d="M-198.1,312.3c0-0.3,0-0.6,0-1c4.5-0.3,5.3-1.1,5.5-3.4l1.8-20.8c0.1-0.5,0.1-1.1-0.3-1.5
			c-0.5-0.6-1.6-0.8-4.3-0.9l-0.3,0.4c4.4,0.1,4.6,0.6,4.5,2l-1.8,20.8c-0.1,1.9-0.5,2.7-5.4,3c-0.1,0.6-0.1,1.1,0,1.7l0.4-0.2
			L-198.1,312.3z"/>
		<path class="st0" d="M-183.1,311.1c0.1,0.5,0.1,0.8-0.1,1c-0.1,0.1-0.4,0.2-0.7,0.2h-14.2l-0.3,0.4h14.5c1.2,0,1.4-0.7,1.1-2
			l-0.3,0.2V311.1z"/>
		<path class="st0" d="M-188.3,288.3C-188.3,288.3-188.4,288.3-188.3,288.3c-0.3,0-0.4,0.2-0.4,0.4l-1.4,19.8
			c-0.1,0.7-0.1,1.4,0.3,1.8c0.5,0.6,1.6,0.8,4.6,0.8h2.1l0.3-0.4h-2.4c-4.7,0-4.7-0.4-4.5-2.2l1.4-19.8l0.1-0.1L-188.3,288.3z"/>
		<path class="st0" d="M-175.9,312.4l-12.1-23.9c-0.1-0.1-0.2-0.2-0.4-0.2v0.4l12.2,24.1l0.2-0.1L-175.9,312.4L-175.9,312.4z"/>
		<path class="st0" d="M-163.3,288.3L-163.3,288.3c-0.2,0-0.4,0.1-0.4,0.2l-10.6,22.3c-0.7,1.4-1,1.6-1.6,1.6l-0.2,0.4
			c1,0,1.4-0.3,2.2-1.9l10.6-22.3l0.1-0.2L-163.3,288.3z"/>
		<path class="st0" d="M-167.6,312.3c-0.1-0.3-0.1-0.6,0-0.9l2.1-0.1c2.1-0.1,3.4-0.3,4.1-1.1c0.5-0.6,0.5-1.4,0.4-2.2l-2-19.3
			c0-0.2-0.2-0.3-0.3-0.3l-0.1,0.4l2,19.3c0.2,2.2-0.4,2.7-4.1,2.9l-2.4,0.1c-0.2,0.6-0.2,1.1,0,1.7l0.3-0.2V312.3z"/>
		<path class="st0" d="M-151.4,311.1c0,0.4,0,0.9-0.2,1c-0.1,0.1-0.4,0.2-0.7,0.2h-15.3l-0.3,0.4h15.6c1.2,0,1.4-0.7,1.2-2l-0.3,0.1
			L-151.4,311.1z"/>
		<path class="st0" d="M-153.5,284.6c-2.3,0.2-3.5,0.5-4,1.1c-0.4,0.5-0.4,1.1-0.3,1.6l1.1,11.1h0.4l-1.1-11.2
			c-0.1-1.3,0.1-2,4.2-2.3l-0.1-0.4L-153.5,284.6L-153.5,284.6z"/>
		<path class="st0" d="M-156.7,298.3l1,10.4c0.2,1.7,1.2,1.9,4.3,2.3l0.4-0.4c-3.4-0.4-4.1-0.6-4.2-2l-1-10.4l-0.2-0.3L-156.7,298.3
			z"/>
		<path class="st0" d="M-153.5,283.6c0.1,0.3,0.1,0.6,0,1l0.3,0.4c0.2-0.6,0.2-1.1,0-1.7l-0.4,0.2L-153.5,283.6z"/>
		<polygon class="st0" points="-163.4,283.6 -153.5,283.6 -153.2,283.2 -163.6,283.2 -163.6,283.6 		"/>
		<path class="st0" d="M-173.8,304.9L-173.8,304.9c0.2,0,0.3-0.1,0.4-0.2l10.1-21l-0.2-0.4l-10.3,21.2l-0.2,0.1L-173.8,304.9z"/>
		<path class="st0" d="M-185.2,283.6l11,21c0.1,0.1,0.2,0.2,0.4,0.2v-0.4l-11.1-21.2L-185.2,283.6z"/>
	</g>
	<g id="L_2_">
		<path class="st0" d="M-144.7,312.3c0-0.3-0.1-0.6,0-1c4-0.3,5.3-0.9,5.3-4.1V287c0-1.9-0.9-2.3-2.8-2.3h-1.8h-0.2l-0.1,0.4h2.1
			c1.9,0,2.4,0.3,2.4,1.9v20.2c0,2.9-1,3.4-5.3,3.7c-0.1,0.6-0.1,1.1,0,1.7l0.4-0.2V312.3z"/>
		<path class="st0" d="M-144.7,312.3h20.9c0.5-2.3,1.2-4.7,2.2-7.7c0.1-0.3,0.2-0.8,0-1s-0.5-0.3-0.9-0.3h-0.3v-0.4
			c1.3,0,1.9,0.5,1.5,1.9c-0.9,2.7-1.7,5.2-2.3,8h-21.6L-144.7,312.3z"/>
		<path class="st0" d="M-122.4,303.3l-1.1,2.5c-1.9,4-2.4,4.4-5.9,4.4l-0.2-0.2l0.2-0.2c3.3,0,3.7-0.2,5.6-4.2l1.2-2.7L-122.4,303.3
			z"/>
		<path class="st0" d="M-134.7,298.3v9.6c0,2,1.4,2.3,2.4,2.3h2.8v-0.4h-2.8c-1.2,0-2-0.4-2-1.9v-9.6l-0.2-0.3L-134.7,298.3z"/>
		<path class="st0" d="M-134.7,298.3v-9.9c0-3.2,1.4-3.7,5.6-3.9h0.2l0.2,0.4c-4.6,0.3-5.5,0.7-5.5,3.5v9.9H-134.7z"/>
		<path class="st0" d="M-129.1,284.6c0-0.3,0-0.7,0-0.9l-0.1-0.2l0.4-0.2c0.1,0.4,0.1,1.3,0,1.7L-129.1,284.6z"/>
		<path class="st0" d="M-129.1,283.6h-13.4c-0.7,0-1.2,0.1-1.4,0.4c-0.1,0.2-0.2,0.4-0.1,0.8l-0.3,0.4c-0.3-1.1,0-2,1.9-2h13.6
			L-129.1,283.6z"/>
	</g>
	<g id="E_2_">
		<path class="st0" d="M-93.2,283.6h-20.7c-0.7,0-1.2,0.1-1.4,0.4c-0.1,0.2-0.2,0.4-0.2,0.8v0.2l-0.4,0.2c-0.2-1.1,0-2,1.9-2h21
			l-0.1,0.3L-93.2,283.6z"/>
		<path class="st0" d="M-116.5,312.3c-0.1-0.3-0.1-0.6,0-0.9c4.3-0.2,5.6-0.6,5.6-3.9v-20.4c0-1.9-0.7-2.3-2.8-2.3h-1.8l-0.4,0.4
			h2.1c2,0,2.4,0.3,2.4,1.9v20.4c0,3-0.8,3.3-5.5,3.5c-0.2,0.6-0.2,1.1,0,1.7l0.3-0.1L-116.5,312.3z"/>
		<path class="st0" d="M-91.4,303.3c0.3,0,0.7,0.1,0.8,0.3c0.2,0.3,0.1,0.7,0,1c-1,2.9-1.7,5.4-2.2,7.7h-23.8l-0.3,0.4h24.4
			c0.6-2.7,1.4-5.4,2.3-8c0.4-1.3-0.2-1.9-1.5-1.9v0.3L-91.4,303.3z"/>
		<path class="st0" d="M-102.2,310.2h3.8c3.5,0,4.1-0.4,5.9-4.4l1.1-2.5l-0.3-0.4l-1.2,2.7c-1.9,4-2.3,4.2-5.6,4.2h-3.8l-0.1,0.2
			L-102.2,310.2z"/>
		<path class="st0" d="M-106,304.8v2.8c0,2,0.9,2.6,3.8,2.6v-0.4c-3,0-3.4-0.7-3.4-2.3v-2.8l-0.1-0.1L-106,304.8z"/>
		<path class="st0" d="M-103.4,299.4h-2.2c-0.2,0-0.4,0.2-0.4,0.4v5h0.4v-5h2.2l0.1-0.2L-103.4,299.4z"/>
		<path class="st0" d="M-98.3,303.4c-0.5-3.1-1.1-3.9-2.6-3.9h-2.4v0.4h2.4c1.1,0,1.7,0.4,2.3,3.8l0.3-0.1L-98.3,303.4z"/>
		<path class="st0" d="M-97.6,303.4c-0.1,0-0.2,0-0.4,0c-0.1,0-0.3,0-0.4,0l-0.4,0.3c0.5,0.2,1.1,0.2,1.5,0l-0.1-0.2L-97.6,303.4z"
			/>
		<path class="st0" d="M-98.6,293.7h0.2c0.5,0,0.6,0.1,0.7,0.2c0.2,0.2,0.2,0.5,0.2,1.1c-0.1,2.7-0.1,5.6,0,8.4l0.4,0.3
			c-0.1-2.9-0.1-5.9,0-8.7c0.1-1.4-0.4-1.7-1.3-1.7h-0.5l0.1,0.3L-98.6,293.7z"/>
		<path class="st0" d="M-103.3,297.5h2.3c1.6,0,2-0.7,2.1-1.9l0.3-1.9l-0.3-0.4l-0.3,2.3c-0.1,1.1-0.4,1.6-1.7,1.6h-2.3l-0.1,0.1
			V297.5z"/>
		<path class="st0" d="M-106,291.3v5.8c0,0.2,0.2,0.4,0.4,0.4h2.3v-0.4h-2.3v-5.8l-0.1-0.1L-106,291.3z"/>
		<path class="st0" d="M-103.3,285.4h-2.3c-0.2,0-0.4,0.2-0.4,0.4v5.5h0.4v-5.5h2.3l0.1-0.2L-103.3,285.4z"/>
		<path class="st0" d="M-93.6,290.8L-93.6,290.8l-0.5-1.7c-0.8-2.8-1.8-3.7-4.5-3.7h-4.7v0.4h4.7c2.4,0,3.4,0.7,4.1,3.4l0.6,2
			l0.3-0.1V290.8z"/>
		<path class="st0" d="M-93.2,283.6c0.1,1.7,0.4,3.7,0.7,5.6c0.1,0.4,0.1,0.9-0.2,1.3c-0.2,0.2-0.5,0.3-0.9,0.3l-0.3,0.4
			c1.4,0.1,1.9-0.6,1.7-2c-0.3-1.9-0.6-4-0.7-6L-93.2,283.6z"/>
	</g>
	<g id="R_2_">
		<path class="st0" d="M-64.1,301.2c3.7-1.5,6-4.5,6-8.3c0-6.1-4.7-10.1-13.2-10.1c-6.2,0-8.8,0-11,0.2c-1.8,0.1-2.1,1-1.8,2.1
			l0.3-0.4c-0.1-0.4,0-0.6,0.1-0.8c0.2-0.3,0.7-0.5,1.4-0.5c2.1-0.2,4.7-0.2,10.9-0.2c8,0,12.8,3.6,12.8,9.7c0,3.5-2.1,6.4-5.7,7.9
			c-0.1,0.1-0.2,0.2-0.2,0.3L-64.1,301.2z"/>
		<path class="st0" d="M-83.7,284.8h1.8c1.9,0,2.8,0.4,2.8,2.4v20.4c0,3.1-1.3,3.5-4.8,3.8c0,0.3,0,0.7,0,1l-0.1,0.3l-0.3,0.1
			c-0.1-0.5-0.1-1.2,0-1.7c3.8-0.3,4.7-0.7,4.7-3.4v-20.4c0-1.7-0.6-2-2.4-2h-2.1L-83.7,284.8z"/>
		<path class="st0" d="M-69.4,311.1c0,0.4,0,0.8-0.2,1c-0.1,0.1-0.4,0.2-0.8,0.2H-84l-0.3,0.4h13.9c1.3,0,1.4-0.7,1.3-2L-69.4,311.1
			z"/>
		<path class="st0" d="M-74.4,306.5v2.5c0,1.6,0.7,2.1,3.1,2.1h1.9l0.4-0.4h-2.3c-2.3,0-2.7-0.4-2.7-1.7v-2.5l-0.2-0.1L-74.4,306.5z
			"/>
		<path class="st0" d="M-71,302.1h-3c-0.2,0-0.4,0.2-0.4,0.4v4h0.4v-4h3l0,0l0.1-0.2L-71,302.1z"/>
		<path class="st0" d="M-52.8,313C-52.9,313-52.9,313-52.8,313c-4.2,0-6.8-0.9-9.8-3.6c-1.7-1.5-3.1-3.2-4.1-5
			c-1.2-2.1-1.4-2.3-4.2-2.3v0.4c2.7,0,2.8,0.1,3.9,2.1s2.7,3.8,4.2,5.1c3.3,2.8,6,3.7,10.1,3.7l0.2-0.2L-52.8,313z"/>
		<path class="st0" d="M-47.8,311.1c0,0.3,0,0.6-0.2,0.8c-0.4,0.5-1.5,1.1-4.8,1.1v0.4c4.7,0,5.8-1.1,5.4-2.7l-0.2,0.1L-47.8,311.1z
			"/>
		<path class="st0" d="M-64.5,301.2c0,0.1,0,0.3,0.1,0.4c0,0,3.3,3.1,5,4.4c5.7,4.6,7.8,5.1,11.5,5.2l0.3-0.4
			c-3.8,0-5.8-0.4-11.6-5.1c-1.7-1.4-5-4.4-5-4.4l-0.1-0.1H-64.5z"/>
		<path class="st0" d="M-72.6,300.3h0.7c4,0,8.3-0.5,8.3-7.1c0-5.5-2.9-8.2-8.9-8.2h-0.1l-0.1,0.2l0.1,0.2h0.1c5,0,8.5,1.9,8.5,7.8
			c0,6-3.5,6.7-7.9,6.7h-0.7l-0.1,0.2L-72.6,300.3z"/>
		<path class="st0" d="M-74.4,293.3v-7.8c0-0.2,0.2-0.4,0.4-0.4h1.4v0.4H-74v7.8l-0.2,0.1L-74.4,293.3z"/>
		<path class="st0" d="M-74.4,293.3v6.7c0,0.2,0.2,0.4,0.4,0.4h1.4V300H-74v-6.7H-74.4z"/>
	</g>
</g>
</svg>
